<svg width="1728" height="1089" viewBox="0 0 1728 1089" fill="none" xmlns="http://www.w3.org/2000/svg">
<path d="M362.784 552.272C363.413 552.389 363.93 552.704 364.336 553.216C364.741 553.728 364.944 554.315 364.944 554.976C364.944 555.573 364.794 556.101 364.496 556.56C364.208 557.008 363.786 557.36 363.232 557.616C362.677 557.872 362.021 558 361.264 558H356.448V546.832H361.056C361.813 546.832 362.464 546.955 363.008 547.2C363.562 547.445 363.978 547.787 364.256 548.224C364.544 548.661 364.688 549.157 364.688 549.712C364.688 550.363 364.512 550.907 364.16 551.344C363.818 551.781 363.36 552.091 362.784 552.272ZM358.688 551.44H360.736C361.269 551.44 361.68 551.323 361.968 551.088C362.256 550.843 362.4 550.496 362.4 550.048C362.4 549.6 362.256 549.253 361.968 549.008C361.68 548.763 361.269 548.64 360.736 548.64H358.688V551.44ZM360.944 556.176C361.488 556.176 361.909 556.048 362.208 555.792C362.517 555.536 362.672 555.173 362.672 554.704C362.672 554.224 362.512 553.851 362.192 553.584C361.872 553.307 361.44 553.168 360.896 553.168H358.688V556.176H360.944ZM374.969 553.376C374.969 553.696 374.948 553.984 374.905 554.24H368.425C368.478 554.88 368.702 555.381 369.097 555.744C369.492 556.107 369.977 556.288 370.553 556.288C371.385 556.288 371.977 555.931 372.329 555.216H374.745C374.489 556.069 373.998 556.773 373.273 557.328C372.548 557.872 371.657 558.144 370.601 558.144C369.748 558.144 368.98 557.957 368.297 557.584C367.625 557.2 367.097 556.661 366.713 555.968C366.34 555.275 366.153 554.475 366.153 553.568C366.153 552.651 366.34 551.845 366.713 551.152C367.086 550.459 367.609 549.925 368.281 549.552C368.953 549.179 369.726 548.992 370.601 548.992C371.444 548.992 372.196 549.173 372.857 549.536C373.529 549.899 374.046 550.416 374.409 551.088C374.782 551.749 374.969 552.512 374.969 553.376ZM372.649 552.736C372.638 552.16 372.43 551.701 372.025 551.36C371.62 551.008 371.124 550.832 370.537 550.832C369.982 550.832 369.513 551.003 369.129 551.344C368.756 551.675 368.526 552.139 368.441 552.736H372.649ZM376.028 553.568C376.028 552.651 376.215 551.851 376.588 551.168C376.961 550.475 377.479 549.941 378.14 549.568C378.801 549.184 379.559 548.992 380.412 548.992C381.511 548.992 382.417 549.269 383.132 549.824C383.857 550.368 384.343 551.136 384.588 552.128H382.172C382.044 551.744 381.825 551.445 381.516 551.232C381.217 551.008 380.844 550.896 380.396 550.896C379.756 550.896 379.249 551.131 378.876 551.6C378.503 552.059 378.316 552.715 378.316 553.568C378.316 554.411 378.503 555.067 378.876 555.536C379.249 555.995 379.756 556.224 380.396 556.224C381.303 556.224 381.895 555.819 382.172 555.008H384.588C384.343 555.968 383.857 556.731 383.132 557.296C382.407 557.861 381.5 558.144 380.412 558.144C379.559 558.144 378.801 557.957 378.14 557.584C377.479 557.2 376.961 556.667 376.588 555.984C376.215 555.291 376.028 554.485 376.028 553.568ZM390.165 558.144C389.312 558.144 388.544 557.957 387.861 557.584C387.178 557.2 386.64 556.661 386.245 555.968C385.861 555.275 385.669 554.475 385.669 553.568C385.669 552.661 385.866 551.861 386.261 551.168C386.666 550.475 387.216 549.941 387.909 549.568C388.602 549.184 389.376 548.992 390.229 548.992C391.082 548.992 391.856 549.184 392.549 549.568C393.242 549.941 393.786 550.475 394.181 551.168C394.586 551.861 394.789 552.661 394.789 553.568C394.789 554.475 394.581 555.275 394.165 555.968C393.76 556.661 393.205 557.2 392.501 557.584C391.808 557.957 391.029 558.144 390.165 558.144ZM390.165 556.192C390.57 556.192 390.949 556.096 391.301 555.904C391.664 555.701 391.952 555.403 392.165 555.008C392.378 554.613 392.485 554.133 392.485 553.568C392.485 552.725 392.261 552.08 391.813 551.632C391.376 551.173 390.837 550.944 390.197 550.944C389.557 550.944 389.018 551.173 388.581 551.632C388.154 552.08 387.941 552.725 387.941 553.568C387.941 554.411 388.149 555.061 388.565 555.52C388.992 555.968 389.525 556.192 390.165 556.192ZM407.44 549.008C408.528 549.008 409.403 549.344 410.064 550.016C410.736 550.677 411.072 551.605 411.072 552.8V558H408.832V553.104C408.832 552.411 408.656 551.883 408.304 551.52C407.952 551.147 407.472 550.96 406.864 550.96C406.256 550.96 405.771 551.147 405.408 551.52C405.056 551.883 404.88 552.411 404.88 553.104V558H402.64V553.104C402.64 552.411 402.464 551.883 402.112 551.52C401.76 551.147 401.28 550.96 400.672 550.96C400.053 550.96 399.563 551.147 399.2 551.52C398.848 551.883 398.672 552.411 398.672 553.104V558H396.432V549.136H398.672V550.208C398.96 549.835 399.328 549.541 399.776 549.328C400.235 549.115 400.736 549.008 401.28 549.008C401.973 549.008 402.592 549.157 403.136 549.456C403.68 549.744 404.101 550.16 404.4 550.704C404.688 550.192 405.104 549.781 405.648 549.472C406.203 549.163 406.8 549.008 407.44 549.008ZM421.438 553.376C421.438 553.696 421.416 553.984 421.374 554.24H414.894C414.947 554.88 415.171 555.381 415.566 555.744C415.96 556.107 416.446 556.288 417.022 556.288C417.854 556.288 418.446 555.931 418.798 555.216H421.214C420.958 556.069 420.467 556.773 419.742 557.328C419.016 557.872 418.126 558.144 417.07 558.144C416.216 558.144 415.448 557.957 414.766 557.584C414.094 557.2 413.566 556.661 413.182 555.968C412.808 555.275 412.622 554.475 412.622 553.568C412.622 552.651 412.808 551.845 413.182 551.152C413.555 550.459 414.078 549.925 414.75 549.552C415.422 549.179 416.195 548.992 417.07 548.992C417.912 548.992 418.664 549.173 419.326 549.536C419.998 549.899 420.515 550.416 420.878 551.088C421.251 551.749 421.438 552.512 421.438 553.376ZM419.118 552.736C419.107 552.16 418.899 551.701 418.494 551.36C418.088 551.008 417.592 550.832 417.006 550.832C416.451 550.832 415.982 551.003 415.598 551.344C415.224 551.675 414.995 552.139 414.91 552.736H419.118ZM426.309 553.536C426.309 552.64 426.485 551.845 426.837 551.152C427.2 550.459 427.685 549.925 428.293 549.552C428.912 549.179 429.6 548.992 430.357 548.992C431.019 548.992 431.595 549.125 432.085 549.392C432.587 549.659 432.987 549.995 433.285 550.4V549.136H435.541V558H433.285V556.704C432.997 557.12 432.597 557.467 432.085 557.744C431.584 558.011 431.003 558.144 430.341 558.144C429.595 558.144 428.912 557.952 428.293 557.568C427.685 557.184 427.2 556.645 426.837 555.952C426.485 555.248 426.309 554.443 426.309 553.536ZM433.285 553.568C433.285 553.024 433.179 552.56 432.965 552.176C432.752 551.781 432.464 551.483 432.101 551.28C431.739 551.067 431.349 550.96 430.933 550.96C430.517 550.96 430.133 551.061 429.781 551.264C429.429 551.467 429.141 551.765 428.917 552.16C428.704 552.544 428.597 553.003 428.597 553.536C428.597 554.069 428.704 554.539 428.917 554.944C429.141 555.339 429.429 555.643 429.781 555.856C430.144 556.069 430.528 556.176 430.933 556.176C431.349 556.176 431.739 556.075 432.101 555.872C432.464 555.659 432.752 555.36 432.965 554.976C433.179 554.581 433.285 554.112 433.285 553.568ZM440.998 552.4C440.998 551.301 441.243 550.32 441.734 549.456C442.235 548.581 442.912 547.904 443.766 547.424C444.63 546.933 445.595 546.688 446.662 546.688C447.91 546.688 449.003 547.008 449.942 547.648C450.88 548.288 451.536 549.173 451.91 550.304H449.334C449.078 549.771 448.715 549.371 448.246 549.104C447.787 548.837 447.254 548.704 446.646 548.704C445.995 548.704 445.414 548.859 444.902 549.168C444.4 549.467 444.006 549.893 443.718 550.448C443.44 551.003 443.302 551.653 443.302 552.4C443.302 553.136 443.44 553.787 443.718 554.352C444.006 554.907 444.4 555.339 444.902 555.648C445.414 555.947 445.995 556.096 446.646 556.096C447.254 556.096 447.787 555.963 448.246 555.696C448.715 555.419 449.078 555.013 449.334 554.48H451.91C451.536 555.621 450.88 556.512 449.942 557.152C449.014 557.781 447.92 558.096 446.662 558.096C445.595 558.096 444.63 557.856 443.766 557.376C442.912 556.885 442.235 556.208 441.734 555.344C441.243 554.48 440.998 553.499 440.998 552.4ZM458.815 549.008C459.487 549.008 460.084 549.157 460.607 549.456C461.129 549.744 461.535 550.176 461.823 550.752C462.121 551.317 462.271 552 462.271 552.8V558H460.031V553.104C460.031 552.4 459.855 551.861 459.503 551.488C459.151 551.104 458.671 550.912 458.063 550.912C457.444 550.912 456.953 551.104 456.591 551.488C456.239 551.861 456.063 552.4 456.063 553.104V558H453.823V546.16H456.063V550.24C456.351 549.856 456.735 549.557 457.215 549.344C457.695 549.12 458.228 549.008 458.815 549.008ZM468.337 558.144C467.484 558.144 466.716 557.957 466.033 557.584C465.35 557.2 464.812 556.661 464.417 555.968C464.033 555.275 463.841 554.475 463.841 553.568C463.841 552.661 464.038 551.861 464.433 551.168C464.838 550.475 465.388 549.941 466.081 549.568C466.774 549.184 467.548 548.992 468.401 548.992C469.254 548.992 470.028 549.184 470.721 549.568C471.414 549.941 471.958 550.475 472.353 551.168C472.758 551.861 472.961 552.661 472.961 553.568C472.961 554.475 472.753 555.275 472.337 555.968C471.932 556.661 471.377 557.2 470.673 557.584C469.98 557.957 469.201 558.144 468.337 558.144ZM468.337 556.192C468.742 556.192 469.121 556.096 469.473 555.904C469.836 555.701 470.124 555.403 470.337 555.008C470.55 554.613 470.657 554.133 470.657 553.568C470.657 552.725 470.433 552.08 469.985 551.632C469.548 551.173 469.009 550.944 468.369 550.944C467.729 550.944 467.19 551.173 466.753 551.632C466.326 552.08 466.113 552.725 466.113 553.568C466.113 554.411 466.321 555.061 466.737 555.52C467.164 555.968 467.697 556.192 468.337 556.192ZM475.74 548.08C475.345 548.08 475.015 547.957 474.748 547.712C474.492 547.456 474.364 547.141 474.364 546.768C474.364 546.395 474.492 546.085 474.748 545.84C475.015 545.584 475.345 545.456 475.74 545.456C476.135 545.456 476.46 545.584 476.716 545.84C476.983 546.085 477.116 546.395 477.116 546.768C477.116 547.141 476.983 547.456 476.716 547.712C476.46 547.957 476.135 548.08 475.74 548.08ZM476.844 549.136V558H474.604V549.136H476.844ZM478.481 553.568C478.481 552.651 478.668 551.851 479.041 551.168C479.414 550.475 479.932 549.941 480.593 549.568C481.254 549.184 482.012 548.992 482.865 548.992C483.964 548.992 484.87 549.269 485.585 549.824C486.31 550.368 486.796 551.136 487.041 552.128H484.625C484.497 551.744 484.278 551.445 483.969 551.232C483.67 551.008 483.297 550.896 482.849 550.896C482.209 550.896 481.702 551.131 481.329 551.6C480.956 552.059 480.769 552.715 480.769 553.568C480.769 554.411 480.956 555.067 481.329 555.536C481.702 555.995 482.209 556.224 482.849 556.224C483.756 556.224 484.348 555.819 484.625 555.008H487.041C486.796 555.968 486.31 556.731 485.585 557.296C484.86 557.861 483.953 558.144 482.865 558.144C482.012 558.144 481.254 557.957 480.593 557.584C479.932 557.2 479.414 556.667 479.041 555.984C478.668 555.291 478.481 554.485 478.481 553.568ZM489.818 548.08C489.423 548.08 489.093 547.957 488.826 547.712C488.57 547.456 488.442 547.141 488.442 546.768C488.442 546.395 488.57 546.085 488.826 545.84C489.093 545.584 489.423 545.456 489.818 545.456C490.213 545.456 490.538 545.584 490.794 545.84C491.061 546.085 491.194 546.395 491.194 546.768C491.194 547.141 491.061 547.456 490.794 547.712C490.538 547.957 490.213 548.08 489.818 548.08ZM490.922 549.136V558H488.682V549.136H490.922ZM501.375 553.376C501.375 553.696 501.354 553.984 501.311 554.24H494.831C494.885 554.88 495.109 555.381 495.503 555.744C495.898 556.107 496.383 556.288 496.959 556.288C497.791 556.288 498.383 555.931 498.735 555.216H501.151C500.895 556.069 500.405 556.773 499.679 557.328C498.954 557.872 498.063 558.144 497.007 558.144C496.154 558.144 495.386 557.957 494.703 557.584C494.031 557.2 493.503 556.661 493.119 555.968C492.746 555.275 492.559 554.475 492.559 553.568C492.559 552.651 492.746 551.845 493.119 551.152C493.493 550.459 494.015 549.925 494.687 549.552C495.359 549.179 496.133 548.992 497.007 548.992C497.85 548.992 498.602 549.173 499.263 549.536C499.935 549.899 500.453 550.416 500.815 551.088C501.189 551.749 501.375 552.512 501.375 553.376ZM499.055 552.736C499.045 552.16 498.837 551.701 498.431 551.36C498.026 551.008 497.53 550.832 496.943 550.832C496.389 550.832 495.919 551.003 495.535 551.344C495.162 551.675 494.933 552.139 494.847 552.736H499.055ZM509.063 550.416C509.351 550.011 509.745 549.675 510.247 549.408C510.759 549.131 511.34 548.992 511.991 548.992C512.748 548.992 513.431 549.179 514.039 549.552C514.657 549.925 515.143 550.459 515.495 551.152C515.857 551.835 516.039 552.629 516.039 553.536C516.039 554.443 515.857 555.248 515.495 555.952C515.143 556.645 514.657 557.184 514.039 557.568C513.431 557.952 512.748 558.144 511.991 558.144C511.34 558.144 510.764 558.011 510.263 557.744C509.772 557.477 509.372 557.141 509.063 556.736V562.224H506.823V549.136H509.063V550.416ZM513.751 553.536C513.751 553.003 513.639 552.544 513.415 552.16C513.201 551.765 512.913 551.467 512.551 551.264C512.199 551.061 511.815 550.96 511.399 550.96C510.993 550.96 510.609 551.067 510.247 551.28C509.895 551.483 509.607 551.781 509.383 552.176C509.169 552.571 509.063 553.035 509.063 553.568C509.063 554.101 509.169 554.565 509.383 554.96C509.607 555.355 509.895 555.659 510.247 555.872C510.609 556.075 510.993 556.176 511.399 556.176C511.815 556.176 512.199 556.069 512.551 555.856C512.913 555.643 513.201 555.339 513.415 554.944C513.639 554.549 513.751 554.08 513.751 553.536ZM517.09 553.536C517.09 552.64 517.266 551.845 517.618 551.152C517.981 550.459 518.467 549.925 519.075 549.552C519.693 549.179 520.381 548.992 521.139 548.992C521.8 548.992 522.376 549.125 522.867 549.392C523.368 549.659 523.768 549.995 524.067 550.4V549.136H526.323V558H524.067V556.704C523.779 557.12 523.379 557.467 522.867 557.744C522.365 558.011 521.784 558.144 521.123 558.144C520.376 558.144 519.693 557.952 519.075 557.568C518.467 557.184 517.981 556.645 517.618 555.952C517.266 555.248 517.09 554.443 517.09 553.536ZM524.067 553.568C524.067 553.024 523.96 552.56 523.747 552.176C523.533 551.781 523.245 551.483 522.883 551.28C522.52 551.067 522.131 550.96 521.715 550.96C521.299 550.96 520.915 551.061 520.562 551.264C520.211 551.467 519.923 551.765 519.699 552.16C519.485 552.544 519.379 553.003 519.379 553.536C519.379 554.069 519.485 554.539 519.699 554.944C519.923 555.339 520.211 555.643 520.562 555.856C520.925 556.069 521.309 556.176 521.715 556.176C522.131 556.176 522.52 556.075 522.883 555.872C523.245 555.659 523.533 555.36 523.747 554.976C523.96 554.581 524.067 554.112 524.067 553.568ZM530.75 550.512C531.038 550.043 531.412 549.675 531.87 549.408C532.34 549.141 532.873 549.008 533.47 549.008V551.36H532.878C532.174 551.36 531.641 551.525 531.278 551.856C530.926 552.187 530.75 552.763 530.75 553.584V558H528.51V549.136H530.75V550.512ZM537.587 550.976V555.264C537.587 555.563 537.656 555.781 537.795 555.92C537.944 556.048 538.19 556.112 538.531 556.112H539.571V558H538.163C536.275 558 535.331 557.083 535.331 555.248V550.976H534.275V549.136H535.331V546.944H537.587V549.136H539.571V550.976H537.587ZM546.094 549.008C547.15 549.008 548.003 549.344 548.654 550.016C549.305 550.677 549.63 551.605 549.63 552.8V558H547.39V553.104C547.39 552.4 547.214 551.861 546.862 551.488C546.51 551.104 546.03 550.912 545.422 550.912C544.803 550.912 544.313 551.104 543.95 551.488C543.598 551.861 543.422 552.4 543.422 553.104V558H541.182V549.136H543.422V550.24C543.721 549.856 544.099 549.557 544.558 549.344C545.027 549.12 545.539 549.008 546.094 549.008ZM560 553.376C560 553.696 559.979 553.984 559.936 554.24H553.456C553.51 554.88 553.734 555.381 554.128 555.744C554.523 556.107 555.008 556.288 555.584 556.288C556.416 556.288 557.008 555.931 557.36 555.216H559.776C559.52 556.069 559.03 556.773 558.304 557.328C557.579 557.872 556.688 558.144 555.632 558.144C554.779 558.144 554.011 557.957 553.328 557.584C552.656 557.2 552.128 556.661 551.744 555.968C551.371 555.275 551.184 554.475 551.184 553.568C551.184 552.651 551.371 551.845 551.744 551.152C552.118 550.459 552.64 549.925 553.312 549.552C553.984 549.179 554.758 548.992 555.632 548.992C556.475 548.992 557.227 549.173 557.888 549.536C558.56 549.899 559.078 550.416 559.44 551.088C559.814 551.749 560 552.512 560 553.376ZM557.68 552.736C557.67 552.16 557.462 551.701 557.056 551.36C556.651 551.008 556.155 550.832 555.568 550.832C555.014 550.832 554.544 551.003 554.16 551.344C553.787 551.675 553.558 552.139 553.472 552.736H557.68ZM563.875 550.512C564.163 550.043 564.537 549.675 564.995 549.408C565.465 549.141 565.998 549.008 566.595 549.008V551.36H566.003C565.299 551.36 564.766 551.525 564.403 551.856C564.051 552.187 563.875 552.763 563.875 553.584V558H561.635V549.136H563.875V550.512ZM571 546.64L570.744 554.368H568.856L568.584 546.64H571ZM569.848 558.112C569.443 558.112 569.107 557.989 568.84 557.744C568.584 557.488 568.456 557.173 568.456 556.8C568.456 556.427 568.584 556.117 568.84 555.872C569.107 555.616 569.443 555.488 569.848 555.488C570.243 555.488 570.568 555.616 570.824 555.872C571.08 556.117 571.208 556.427 571.208 556.8C571.208 557.173 571.08 557.488 570.824 557.744C570.568 557.989 570.243 558.112 569.848 558.112Z" fill="white"/>
<path opacity="0.2" d="M-82 969.581V1017.08H1238.5V429C891 627.215 689.468 1071.72 -82 969.581Z" fill="url(#paint0_linear_160_2096)"/>
<line x1="1241" y1="429" x2="1241" y2="1018" stroke="url(#paint1_linear_160_2096)" stroke-width="4"/>
<path d="M-82 970C690.207 1072.24 891.387 626.781 1239.5 428.85" stroke="#F2CF7E" stroke-width="10"/>
<path d="M1754.5 357C1533.83 312.615 1376.81 351.396 1242 427.434" stroke="#ECECEC" stroke-width="8" stroke-dasharray="20 8"/>
<g filter="url(#filter0_d_160_2096)">
<circle cx="1239" cy="430" r="40" fill="white"/>
</g>
<circle cx="1239" cy="430" r="16" fill="url(#paint2_radial_160_2096)"/>
<g filter="url(#filter1_d_160_2096)">
<circle cx="311" cy="974" r="25" fill="white"/>
</g>
<circle cx="310.5" cy="973.5" r="11.5" fill="url(#paint3_radial_160_2096)"/>
<defs>
<filter id="filter0_d_160_2096" x="1139" y="360" width="200" height="200" filterUnits="userSpaceOnUse" color-interpolation-filters="sRGB">
<feFlood flood-opacity="0" result="BackgroundImageFix"/>
<feColorMatrix in="SourceAlpha" type="matrix" values="0 0 0 0 0 0 0 0 0 0 0 0 0 0 0 0 0 0 127 0" result="hardAlpha"/>
<feOffset dy="30"/>
<feGaussianBlur stdDeviation="30"/>
<feComposite in2="hardAlpha" operator="out"/>
<feColorMatrix type="matrix" values="0 0 0 0 0.0818069 0 0 0 0 0.0408333 0 0 0 0 0.2 0 0 0 0.09 0"/>
<feBlend mode="normal" in2="BackgroundImageFix" result="effect1_dropShadow_160_2096"/>
<feBlend mode="normal" in="SourceGraphic" in2="effect1_dropShadow_160_2096" result="shape"/>
</filter>
<filter id="filter1_d_160_2096" x="226" y="919" width="170" height="170" filterUnits="userSpaceOnUse" color-interpolation-filters="sRGB">
<feFlood flood-opacity="0" result="BackgroundImageFix"/>
<feColorMatrix in="SourceAlpha" type="matrix" values="0 0 0 0 0 0 0 0 0 0 0 0 0 0 0 0 0 0 127 0" result="hardAlpha"/>
<feOffset dy="30"/>
<feGaussianBlur stdDeviation="30"/>
<feComposite in2="hardAlpha" operator="out"/>
<feColorMatrix type="matrix" values="0 0 0 0 0.0818069 0 0 0 0 0.0408333 0 0 0 0 0.2 0 0 0 0.09 0"/>
<feBlend mode="normal" in2="BackgroundImageFix" result="effect1_dropShadow_160_2096"/>
<feBlend mode="normal" in="SourceGraphic" in2="effect1_dropShadow_160_2096" result="shape"/>
</filter>
<linearGradient id="paint0_linear_160_2096" x1="836.25" y1="337.829" x2="836.25" y2="1017.08" gradientUnits="userSpaceOnUse">
<stop stop-color="#F9D990"/>
<stop offset="1" stop-color="#F9D990" stop-opacity="0"/>
</linearGradient>
<linearGradient id="paint1_linear_160_2096" x1="1239" y1="429" x2="1239" y2="1018" gradientUnits="userSpaceOnUse">
<stop stop-color="#F2CF7E"/>
<stop offset="1" stop-color="white" stop-opacity="0"/>
</linearGradient>
<radialGradient id="paint2_radial_160_2096" cx="0" cy="0" r="1" gradientUnits="userSpaceOnUse" gradientTransform="translate(1242 427) rotate(116.565) scale(17.8885)">
<stop stop-color="#F9D990"/>
<stop offset="1" stop-color="#E5C270"/>
</radialGradient>
<radialGradient id="paint3_radial_160_2096" cx="0" cy="0" r="1" gradientUnits="userSpaceOnUse" gradientTransform="translate(312.656 971.344) rotate(116.565) scale(12.8574)">
<stop stop-color="#F9D990"/>
<stop offset="1" stop-color="#E5C270"/>
</radialGradient>
<clipPath id="clip0_160_2096">
<rect width="44" height="44" fill="white" transform="translate(279 256)"/>
</clipPath>
<clipPath id="clip1_160_2096">
<rect width="44" height="44" fill="white" transform="translate(279 332)"/>
</clipPath>
<clipPath id="clip2_160_2096">
<rect width="44" height="44" fill="white" transform="translate(524 256)"/>
</clipPath>
<clipPath id="clip3_160_2096">
<rect width="44" height="44" fill="white" transform="translate(524 332)"/>
</clipPath>
<clipPath id="clip4_160_2096">
<rect width="44" height="44" fill="white" transform="translate(914 256)"/>
</clipPath>
</defs>
</svg>
