<svg width="700" height="380" viewBox="0 0 550 500" fill="none" xmlns="http://www.w3.org/2000/svg">
<path fill-rule="evenodd" clip-rule="evenodd" d="M12.9399 310.116C65.8511 91.4209 278.187 -43.8482 485.803 9.32711C700.98 64.6439 829.808 295.727 772.115 520.296C726.212 701.36 573.505 822.198 404.714 827.664C403.495 777.531 433.234 732.151 478.462 716.586C507.279 706.813 533.104 694.854 555.022 682.324L548.527 698.954C544.812 708.609 548.187 720.272 556.96 724.63C566.377 729.438 577.429 724.805 581.506 714.718L609.762 643.22C621.325 632.576 629.736 622.377 634.868 613.123C642.874 598.527 640.018 587.815 634.558 580.38L647.849 546.937L650.056 546.223C673.024 538.541 691.701 520.81 700.978 497.206L726.349 413.114C728.042 407.436 724.755 401.42 718.957 400.313C714.405 399.292 710.083 402.351 708.408 406.962L680.649 484.489C679.1 488.601 674.859 490.344 670.969 488.707C667.078 487.07 665.429 482.588 666.978 478.476L696.281 400.851C698.02 395.99 695.915 390.308 691.143 388.153L690.434 387.953L689.725 387.752C684.952 385.597 679.577 387.822 677.538 392.866L646.171 469.639C644.622 473.751 640.381 475.494 636.491 473.857C632.601 472.22 630.951 467.738 632.5 463.626L665.158 387.754C667.559 382.278 665.045 376.212 659.737 374.173C655.137 372.336 650.171 374.944 648.023 379.422L609.816 457.202C600.602 480.557 601.659 507.356 612.932 529.821L614.143 532.038L594.294 582.36C590.404 580.723 586.416 581.468 582.706 587.109C579.849 591.386 579.448 597.964 579.646 604.177C529.183 650.38 458.127 666.929 411.272 672.932C405.267 673.64 400.183 668.721 399.985 662.508C399.77 657.361 403.163 652.969 407.75 651.859C483.33 634.45 551.47 562.47 576.733 462.823C610.29 330.458 555.221 200.031 453.851 171.322C352.48 142.614 243.087 226.467 209.53 358.831C184.33 458.229 209.463 556.891 266.445 611.841C269.892 615.227 270.753 620.824 268.132 625.167C265.022 630.443 258.354 631.767 253.49 627.98C214.933 597.253 160.297 544.038 139.369 475.743C141.69 471.582 143.429 466.721 142.961 462.574C142.244 455.411 138.843 452.842 134.4 452.387L141.615 397.951L166.293 383.525C166.293 383.525 179.535 323.301 172.919 265.484C170.469 244.179 162.061 224.399 149.631 207.495C146.092 202.478 138.462 204.6 137.415 210.727L105.977 392.676L100.779 432.158C94.1243 436.43 88.8365 444.301 89.0252 458.541C89.0161 466.569 90.5808 476.381 93.3733 487.343L82.1041 572.752C80.6897 583.326 87.3602 592.978 97.3648 594.473C107.37 595.968 116.501 588.918 117.916 578.344L121.222 553.315C134.605 577.449 152.287 603.603 174.367 629.396C206.344 667.093 211.576 722.377 186.441 765.582C44.3764 672.617 -30.5667 489.718 12.9399 310.116ZM326.313 568.138C326.313 568.138 387.101 447.523 256.88 391.17C256.941 390.923 189.269 525.931 326.313 568.138ZM379.5 582.009C379.5 582.009 382.312 444.327 520.81 467.07C520.806 467.064 520.801 467.119 520.794 467.233C520.789 467.325 520.782 467.455 520.772 467.622C520.223 477.613 512.428 619.334 379.5 582.009Z" fill="#48318b60"/>
</svg>
