<svg width="56" height="63" viewBox="0 0 56 63" fill="none" xmlns="http://www.w3.org/2000/svg">
<path d="M54.6135 23.5704H42.3724C41.0924 17.9298 46.1697 -0.904317 37.5724 0.248749H10.5143C7.16812 0.248749 0.376654 -0.853117 0.29452 4.20288C0.213454 12.2626 0.30412 20.3266 0.293454 28.3853C0.232654 31.853 3.92652 32.4386 6.69345 32.0578C5.25665 48.6296 15.1927 31.9042 21.6183 32.0578C21.8316 58.5464 17.0028 56.0034 44.3809 55.6728C49.9873 59.5202 58.6647 70.0056 57.3196 55.6728C67.6108 56.9325 62.6231 43.2994 63.7196 37.1714C63.5468 28.8098 66.2401 21.948 54.6135 23.5704ZM19.7036 31.1821C15.8444 32.5869 12.8769 36.4194 9.39959 38.5954C6.70305 38.4557 9.43585 31.9448 7.76865 31.1821C5.25559 31.4317 1.71319 31.3528 1.84012 27.9704C1.81345 -10.0222 -2.92468 3.48822 35.7164 1.11595C37.9799 1.11595 40.6593 0.948483 40.8279 4.08982C40.4577 12.6712 41.55 21.5832 40.446 30.0184C36.2113 32.9464 25.2855 30.3021 19.7036 31.1821ZM31.0273 35.837C30.8599 36.1965 30.4417 36.6221 30.1292 36.5581C27.9884 36.2296 28.5804 33.6674 28.5057 32.109H31.2279C31.1351 33.3368 31.4668 34.669 31.0273 35.837ZM30.3116 36.557C30.3031 36.5561 30.2945 36.5561 30.286 36.557H30.3148H30.3116ZM62.1495 51.8904C62.0119 55.0413 58.8428 54.5037 56.6028 54.5037C56.2935 54.5037 55.7495 54.7704 55.7495 55.1373C56.9409 66.7821 52.9484 59.773 47.4295 56.204C46.7711 55.4651 45.9256 54.9175 44.9821 54.619C44.0385 54.3205 43.0319 54.2822 42.0684 54.508C16.1079 55.4872 24.5175 54.4493 23.1884 32.0728L26.9655 32.1005C25.4017 39.1704 34.1004 38.9176 32.7767 32.1186C34.3959 32.1144 36.0143 32.0944 37.6321 32.0589C36.9868 39.5928 39.7783 38.8546 39.1767 31.8914C42.6444 31.2696 42.5292 27.5437 42.3767 24.732C70.7201 24.0952 60.2519 23.3197 62.1495 51.8904Z" fill="black"/>
<path d="M17.1659 11.965C15.1733 12.9496 16.7851 16.8717 16.2912 18.9069C16.3723 19.5842 17.7376 19.2536 17.8411 18.7256C17.4016 16.9101 18.7947 12.7128 17.1659 11.965Z" fill="black"/>
<path d="M12.028 11.5565C12.5016 13.1362 10.6808 22.3885 13.5725 19.6759C13.0989 18.0962 14.9197 8.84394 12.028 11.5565Z" fill="black"/>
<path d="M34.2155 16.9879C35.4208 16.7671 34.7403 15.2162 34.9067 14.3426C34.5867 13.9821 33.8827 14.2573 33.5297 14.4802C33.2801 15.1373 32.9035 17.5362 34.2155 16.9879Z" fill="black"/>
<path d="M8.45668 14.2626C7.24601 14.4759 7.92334 16.0173 7.76014 16.8898C8.02155 17.0329 8.32803 17.0697 8.61588 16.9926C8.90372 16.9155 9.1508 16.7305 9.30574 16.4759C9.15214 15.6759 9.84761 13.7655 8.45668 14.2626Z" fill="black"/>
<path d="M25.5192 19.3378C27.4893 18.2946 25.8893 14.3959 26.381 12.3458C26.3234 11.5821 24.9026 11.8647 24.8205 12.4877C25.2802 14.4567 23.8221 18.3298 25.5192 19.3378Z" fill="black"/>
<path d="M30.639 19.676C30.1867 18.1549 31.952 8.64875 29.0944 11.5565C29.5467 13.0776 27.7814 22.5837 30.639 19.676Z" fill="black"/>
<path d="M22.1056 22.876C21.4656 20.7426 23.7312 5.43062 20.5611 8.35648C21.2022 10.4866 18.9355 25.8018 22.1056 22.876Z" fill="black"/>
<path d="M7.3772 10.7714C9.22786 10.4962 7.5148 7.88502 8.66573 6.86955C8.80836 6.69695 9.0029 6.575 9.2204 6.52182C9.262 6.52182 9.50733 6.50155 9.31533 6.50582C17.3367 6.43862 7.91586 3.75488 6.8908 7.30688C6.77453 8.22422 6.06626 10.7181 7.3772 10.7714Z" fill="black"/>
<path d="M30.8599 6.56234C31.5415 6.57087 32.7255 6.5378 33.1383 6.58687C33.3712 6.64891 33.5886 6.75871 33.7769 6.90928C33.9651 7.05986 34.1199 7.24792 34.2316 7.46154C34.9078 8.40234 33.6204 10.7138 35.1255 10.829C36.9388 10.2135 36.1153 6.0226 34.2017 5.6226C33.4583 5.16287 28.2092 5.5138 30.8599 6.56234Z" fill="black"/>
<path d="M12.0309 24.7661C8.83094 25.1991 7.87627 23.9693 8.24107 20.8557C5.9264 19.0072 6.1632 25.3111 8.30187 25.4839C8.94187 25.8285 13.8667 25.8839 12.0309 24.7661Z" fill="black"/>
<path d="M35.2621 20.3575C33.2866 20.717 35.4882 23.9639 33.5085 24.5826L33.6024 24.5474C24.9624 24.7821 34.732 27.7474 35.8114 23.9234C35.8882 22.9474 36.6189 20.5101 35.2621 20.3575Z" fill="black"/>
<path d="M55.901 27.8306C51.2983 27.0989 51.0092 37.7506 55.4071 37.5501C59.5117 37.8776 59.7335 27.997 55.901 27.8306ZM55.5255 36.349C53.4594 36.4557 53.4818 29.3624 55.1607 29.0317C57.4935 28.2232 57.5394 36.7362 55.5255 36.349Z" fill="black"/>
<path d="M49.8358 30.2296C49.6748 27.5064 45.7889 27.6642 44.4833 29.389C43.5681 31.1085 44.1943 33.2578 44.03 35.149C44.2615 37.9672 48.479 37.7645 49.5905 35.6674C50.11 33.9437 49.7878 32.0152 49.8358 30.2296ZM46.4438 28.7256H46.4364C46.4364 28.7256 46.4342 28.7202 46.4438 28.7213V28.7256ZM46.4086 28.7256C46.3788 28.7256 46.3713 28.717 46.4086 28.7256V28.7256ZM48.2945 31.3656C48.0545 33.0722 48.9868 35.4498 47.423 36.6424C44.7745 36.7405 44.878 29.4274 46.6433 28.749C47.2044 28.8838 47.6909 29.2321 47.9992 29.72C48.3076 30.2078 48.4135 30.7966 48.2945 31.3613V31.3656Z" fill="black"/>
<path d="M41.294 42.9101C40.9985 40.1901 37.0934 40.2093 35.8625 42.1912C35.2705 44.7106 34.3788 50.4386 38.3916 50.1912C42.2401 49.9768 41.2236 45.5768 41.294 42.9101ZM39.758 44.1677C39.4721 45.7272 40.5846 48.5933 38.6913 49.2802C38.266 49.2516 37.8655 49.0698 37.5639 48.7686C37.2623 48.4674 37.08 48.0671 37.0508 47.6418C37.342 45.8072 36.1846 42.8994 37.9446 41.7154C39.2737 41.4669 39.9297 43.0765 39.758 44.1677Z" fill="black"/>
<path d="M32.7468 42.796C32.286 40.1666 28.3948 40.044 27.2652 42.2477C26.8012 44.8589 25.8337 50.2359 29.7921 50.2861C33.7345 50.1368 32.7201 45.4968 32.7468 42.796ZM29.9895 49.2045C27.8412 49.2866 27.8721 42.1826 29.5447 41.7645C31.8839 41.0722 31.9489 49.4018 29.9873 49.2045H29.9895Z" fill="black"/>
<path d="M46.1613 41.4232C46.6199 42.9602 44.8375 52.3938 47.7058 49.5426C47.2471 48.0056 49.0295 38.572 46.1613 41.4232Z" fill="black"/>
<path d="M54.6902 41.2994C55.1382 42.7832 53.3846 52.525 56.2422 49.6664C55.7952 48.1826 57.5488 38.4429 54.6902 41.2994Z" fill="black"/>
</svg>
